<svg xmlns="http://www.w3.org/2000/svg" viewBox="0 0 765.64 437.81"><g id="Capa_2" data-name="Capa 2"><g id="Fond"><path d="M518.1,326.39c-4.87,7.47-6.13,16-5.77,24.87a36.85,36.85,0,0,0,1,7,26.09,26.09,0,0,0,12.25,16.58c.46.28.68,1,1,1.54-.44.23-.88.66-1.31.66q-25.53,0-51,0a7.21,7.21,0,0,1-1-.18,4.88,4.88,0,0,1,.48-1.66c4.46-5.5,9-11,13.47-16.44l9.19-11.19,14.69-18c1.47-1.79,3-3.53,4.38-5.39a2.22,2.22,0,0,0,.21-1.87q-6.47-11.14-13.07-22.18c-1.9-3.17-4-6.21-5.91-9.38-2.67-4.43-5.22-9-7.87-13.4-3.14-5.28-6.33-10.52-9.52-15.76a15.21,15.21,0,0,0-1.53-1.73l-.15,2.47c-3.89,0-7.72.2-11.53,0a172.06,172.06,0,0,1-32.48-5.44,4.62,4.62,0,0,0-1.81.32l.07.58c2.83,1.52,5.73,2.89,8.45,4.62a44.32,44.32,0,0,1,7.18,5.44c11,10.65,12.89,26.61,8.14,39.85a33.07,33.07,0,0,1-10.64,15,77.44,77.44,0,0,1-10.56,7.5c-9.87,5.31-20.14,9.32-31.34,8.78a52.49,52.49,0,0,1-27.33-8.78c-2.72,2.29-2.74,5.64-2.72,9,0,5.46,2.71,9,6.86,11.47,5.07,3,10.63,3.41,16.17,3.51,11.58.2,23.17.13,34.75.18,6.81,0,13.54.88,19.86,3.74a27,27,0,0,1,13.14,11.71c5.14,9.39,4.54,19,1,28.62a47.56,47.56,0,0,1-8.45,14.27,68.74,68.74,0,0,1-20.83,16.67,75.69,75.69,0,0,1-25.75,7.88,92.83,92.83,0,0,1-21.72-.23A87.26,87.26,0,0,1,363.65,431a52.91,52.91,0,0,1-17.84-11.91,48.1,48.1,0,0,1-5-6.62c-1.43-2.12-1.26-3.26.46-5.12,2.57-2.77,5.07-5.62,7.77-8.21,5.61-5.36,11.33-10.57,17-15.84.37-.33.78-.61,1.33-1-2.18-1.16-4-2.08-5.75-3.07a32,32,0,0,1-9.84-8.82c-3.27-4.31-4.61-9.23-5.1-14.66a5.57,5.57,0,0,1,1.54-4.76c3.29-3.28,6.56-6.6,10-9.75,4.14-3.84,8.41-7.52,12.61-11.27.62-.55,1.19-1.16,1.76-1.7l-7-7.6a8.51,8.51,0,0,1-.79-.8c-8.41-12.54-10.32-26.16-4.7-40.58,2.25-5.75,6.18-10.33,10.74-14.24a59.39,59.39,0,0,1,16.6-10c7.22-2.9,14.59-5.58,22.36-5.31,5.46.18,10.88,1.38,16.34,2A122.22,122.22,0,0,0,439,252.74c30.67.09,61.34,0,92,0h2.33c.05,2.41-1.75,3-2.9,4.06-2.5,2.33-5.07,4.57-7.78,7,2.78,4.41,5.45,8.63,8.12,12.85.14.22.27.46.4.68,2.6,4.4,5.16,8.84,7.82,13.2s5.23,8.36,8,12.69a45.38,45.38,0,0,0,4.63-19,57.88,57.88,0,0,0-1-12.92c-1.57-7-5.11-12.73-11.08-16.24-.53-.32-.76-1.25-1.32-2.22h51.33a22.94,22.94,0,0,1-1.64,3c-2,2.59-4.14,5.07-6.16,7.66-2.42,3.12-4.75,6.32-7.16,9.45q-7.46,9.69-14.94,19.32-4.34,5.59-8.7,11.15a8.37,8.37,0,0,1-1.35,1.63c-1.16.88-1,1.67-.07,2.57a4.37,4.37,0,0,1,.7.89c2.65,4.45,5.27,8.92,7.94,13.35,3.24,5.37,6.52,10.7,9.8,16,3.06,5,6.15,10,9.22,15q4.75,7.75,9.52,15.51c1.29,2.11,2.63,4.19,3.9,6.32a15.73,15.73,0,0,1,.88,2.27H589.1q-27.72,0-55.43,0a9.21,9.21,0,0,1-2-.5,8.22,8.22,0,0,1,1.2-2.08c2.47-2.29,5-4.46,7.52-6.69.61-.54,1.17-1.16,1.83-1.83-2.86-4.65-5.69-9.17-8.44-13.75-4-6.67-7.94-13.4-11.94-20.07C520.69,330.19,519.39,328.35,518.1,326.39Zm-89.3,85.76c2.32,0,4.65.15,6.95,0,6.71-.51,13.28-1.59,19.3-5.39,4.31-2.71,5.55-8.79,1.95-12.46a19.14,19.14,0,0,0-6.6-4.09c-6.86-2.71-14.09-3-21.27-3.23-15.24-.5-30.48-.77-45.72-1.34a61.76,61.76,0,0,1-10.82-1.75c-2.82-.61-3.26-.52-4.08,2.59a11.07,11.07,0,0,0-.24,1.4c-.73,5.91,2.56,9.4,6.33,12.29,4.29,3.28,9.25,5.11,14.24,6.6A139.7,139.7,0,0,0,428.8,412.15Zm-2.35-90.56a76.52,76.52,0,0,0-4.67-22.19c-1.88-4.82-3.46-9.78-5.21-14.66a77.85,77.85,0,0,0-9.94-19.64c-3.05-4.21-6.6-7.31-11.64-7.84-3.62-.37-7.29,2.59-7.69,6.85a39.89,39.89,0,0,0,1.79,16.54c1.81,5.49,3.4,11.08,5.14,16.61a93.23,93.23,0,0,0,10.51,23.21,55,55,0,0,0,6.63,8.27,12.19,12.19,0,0,0,5.08,3c5.3,1.63,9.2-.75,9.75-7.28C426.28,323.58,426.35,322.7,426.45,321.59Z"/><path d="M328.39,350.33l10.6-5.55c1.7-.9,3.39-1.84,5.11-2.68.34-.17,1-.14,1.19.1a1.61,1.61,0,0,1,0,1.37c-2.86,4.25-5.76,8.47-8.66,12.7-.33.48-.61,1-1,1.47-3.84,4.87-7.42,10-11.59,14.49-3.78,4-8.32,7-13.82,7.52-9.66.87-16.53-4.21-18.26-15-.72-4.5-.61-9.18-.85-13.78-.06-1.19,0-2.39,0-3.59l-.47-.35a16.06,16.06,0,0,0-1.57,2c-2.46,4.49-4.52,9.3-7.34,13.47-9.57,14.12-23.25,20.59-39.7,16.22a21.12,21.12,0,0,1-12.6-9.06c-4.94-7.52-5.07-15.77-2.74-24.18,1.93-7,6.14-12.31,11.32-16.63a75.36,75.36,0,0,1,9.92-7.45c6.67-3.87,13.5-7.42,20.38-10.79,6.51-3.18,13.18-5.95,19.78-8.91.62-.28,1.22-.61,2-1-.93-9.11-.94-18.46-4.62-26.93a27.1,27.1,0,0,0-5.56-7.78c-3.43-3.53-7.6-4-11.92-2-4.5,2-5.72,6.39-6.1,11.14-.64,8.13,1.08,15.92,3.09,23.64.15.58.32,1.15.55,1.94-2.82.85-5.55,1.71-8.29,2.5q-16,4.6-32,9.15a7.19,7.19,0,0,1-2,0c.21-.83.38-1.67.64-2.48a10.59,10.59,0,0,1,.79-1.58c2.53-4.84,4.83-9.85,7.67-14.45a123.24,123.24,0,0,1,9.4-13.11,93.49,93.49,0,0,1,18.71-17.6c9.89-6.91,20.51-12,32.18-13.41,9-1.12,17.94-.18,26.1,4.75a21.64,21.64,0,0,1,7.61,8.25,36.83,36.83,0,0,1,4.24,18.23c0,11.67-.47,23.35-.86,35-.35,10.32-.88,20.63-1.32,30.94C328.36,348,328.39,349,328.39,350.33Zm-38.23-43.81-.54-.37c-1.37,1.06-2.74,2.14-4.13,3.18-7.1,5.33-14,10.8-18.85,19a21.19,21.19,0,0,0-2.82,13.26c.76,8.17,8.12,12.82,14.85,8.91a30.45,30.45,0,0,0,6.91-5.42,12.7,12.7,0,0,0,3.76-9.52c-.22-6,0-11.95.13-17.92C289.56,313.93,289.92,310.23,290.16,306.52Z"/><path d="M759.49,247.72v60c-1.68.55-2.28-.94-3-2-1.64-2.33-3.12-4.8-4.76-7.13-2.54-3.62-5-7.34-7.78-10.73-7.06-8.58-14.73-16.44-23.62-22.65-5.79-4-11.81-7.66-18.74-8.5a17.72,17.72,0,0,0-6.3.6c-2.06.5-3.21,3-3,5.89a10.72,10.72,0,0,0,3.68,7.61c1.86,1.62,3.58,3.46,5.53,4.92,7.75,5.81,15.57,11.51,23.35,17.25,3.29,2.42,6.57,4.87,9.86,7.28,4.46,3.28,8.95,6.49,13.37,9.82a31.65,31.65,0,0,1,4.87,4.24,81.55,81.55,0,0,1,7.87,9.78c6.31,9.94,5.89,20.77,1.77,31.34a34.37,34.37,0,0,1-15.13,17.38c-12,7-24.83,8.05-37.88,6.79-8.84-.86-17.57-3-26.38-4.23-3.6-.5-7.3-.12-11-.11a14.87,14.87,0,0,0-1.87.23c-1.64-21.61-3.27-43.08-4.94-64.95.66.19,1.24.17,1.51.48a11.27,11.27,0,0,1,1.58,2.41c3.38,7.08,7.88,13.29,12.42,19.44a112.38,112.38,0,0,0,9,10.55c8.58,9.06,18,16.94,28.59,22.78,5.13,2.82,10.45,5.19,16.24,5.8,2.7.28,5.33.24,7.6-1.91s2.75-7.16.75-9.88c-5.19-7.06-12.19-11.42-19-16-3.69-2.49-7.34-5.05-11-7.57-7.49-5.15-15-10.2-22.45-15.48-2.75-2-5.19-4.46-7.77-6.72A34.8,34.8,0,0,1,672.21,298c-1.18-4-1.31-8.54-1.38-12.85-.09-6.5,2.23-12.34,5.51-17.53a36.62,36.62,0,0,1,14.91-13.17c8.89-4.47,18.23-5.73,27.82-5.29A59.88,59.88,0,0,1,742,254.34a10.49,10.49,0,0,1,2.37,1c2.31,1.92,4.08,1.46,6.14-.76a66.87,66.87,0,0,1,7.2-6.14A7,7,0,0,1,759.49,247.72Z"/><path d="M595.78,252.89h50.91v2.69q-.21,54.33-.46,108.65a4.78,4.78,0,0,0,2,4.17q3.81,3.09,7.51,6.38A9,9,0,0,1,657,377H595.27a7.44,7.44,0,0,1,1-2.05q4.35-3.84,8.82-7.49a3.63,3.63,0,0,0,1.38-3.18q0-31.69,0-63.4,0-17.42.07-34.85a3.32,3.32,0,0,0-1.17-2.86c-3.07-2.73-6-5.61-9-8.51C596.08,254.32,596,253.57,595.78,252.89Z"/><path d="M626.33,196.42a18.47,18.47,0,0,1,13.14,4.6,15.94,15.94,0,0,1,5.65,10.92,27.22,27.22,0,0,1-.55,9,16.51,16.51,0,0,1-10.25,11.65,22.76,22.76,0,0,1-18.19-.54,15.41,15.41,0,0,1-8.26-8.11c-1.45-3.37-2.66-6.89-2.11-10.7.58-4.05,1.85-7.94,4.6-10.76a19.24,19.24,0,0,1,12.32-5.88C623.9,196.53,625.12,196.49,626.33,196.42Z"/></g><g id="Capa_4" data-name="Capa 4"><path d="M280.16,80.08c0-1.53,0-3,0-4.42a18.68,18.68,0,0,1,1.69-8.57,41.76,41.76,0,0,1,2.58-3.71,1.91,1.91,0,0,0,.39-1c0-14.49,3.41-27.94,12.29-39.62a55.73,55.73,0,0,1,23.05-18A59.63,59.63,0,0,1,338.28.24,57.49,57.49,0,0,1,396,33.39a61.27,61.27,0,0,1,5.57,20.19c.3,3,.25,6.11.33,9.16a1.1,1.1,0,0,0,.47,1,9.57,9.57,0,0,1,3.84,6.89c.28,2.76.22,5.54.3,8.31,0,.37,0,.74,0,1.14a26.4,26.4,0,0,1,7.12,1.65c8.78,3.48,14.42,9.71,16.51,19.2,5,22.93,10.86,45.67,17,68.33a26.1,26.1,0,0,1-1.23,18.27,24.14,24.14,0,0,1-13.63,12.78,28.63,28.63,0,0,1-10.47,1.9H265a26.55,26.55,0,0,1-15.76-4.71A24,24,0,0,1,238.81,180a34.38,34.38,0,0,1,1.29-12.59c4.32-17.2,8.57-34.41,12.86-51.62,1.49-6,3-11.9,4.55-17.82a22.6,22.6,0,0,1,7.83-11.74A27.48,27.48,0,0,1,280,80.11.25.25,0,0,0,280.16,80.08Zm-19,39.2c21.41,8.85,43.49,14.85,66.57,16.93a2.85,2.85,0,0,0,.14-.41,18.82,18.82,0,0,1,5.46-9.66A14.58,14.58,0,0,1,352,124.89a18.51,18.51,0,0,1,6.77,10.26c.09.35.21.69.32,1.06a207.66,207.66,0,0,0,34.06-6,239.79,239.79,0,0,0,32.5-11,2,2,0,0,0,0-.29c-1.38-5.52-2.74-11-4.17-16.54a18.35,18.35,0,0,0-2.5-6,16.29,16.29,0,0,0-14-7.45Q346.11,89,287.35,89c-2.36,0-4.72,0-7.07.16a15.63,15.63,0,0,0-11.7,6.43,24.64,24.64,0,0,0-4.12,9.56c-.8,3.45-1.49,6.92-2.26,10.38C261.91,116.75,261.52,118,261.16,119.28ZM370.6,80.2v-.56c.06-2.79,0-5.6.2-8.38a10.15,10.15,0,0,1,4.31-7.76,1.22,1.22,0,0,0,.35-.83,42.67,42.67,0,0,0-1-11.81A30.76,30.76,0,0,0,362,32.17c-7.63-5.41-16.17-7-25.31-5.19a29.75,29.75,0,0,0-14.49,7.32c-8.4,7.58-11.31,17.28-10.89,28.25a1.51,1.51,0,0,0,.6,1.14,10.18,10.18,0,0,1,1.5,1.36,11.43,11.43,0,0,1,2.72,7.33c.11,2.26,0,4.53,0,6.79v1ZM393,62.69a71.35,71.35,0,0,0-1.62-16.48,47.36,47.36,0,0,0-11.23-20.92c-9.32-10.23-20.83-16-34.76-16.6a47.5,47.5,0,0,0-21.4,4,50.19,50.19,0,0,0-20.24,16,47.29,47.29,0,0,0-7.28,13.86,57.81,57.81,0,0,0-2.72,15.8c0,1.42,0,2.83,0,4.32h8.74c0-.53-.08-1-.1-1.55a43.07,43.07,0,0,1,4.19-20,40.09,40.09,0,0,1,19.87-19.93,38.76,38.76,0,0,1,17.63-3.73A40.47,40.47,0,0,1,366.81,25a39.67,39.67,0,0,1,15,20.18,49.68,49.68,0,0,1,2.44,16.32v1.27h8.18ZM349.79,140.3c0-1.1,0-2.2,0-3.29a6.38,6.38,0,0,0-5.42-6,6,6,0,0,0-6.68,3.57,9.72,9.72,0,0,0-.93,4.49c.07,2.47.25,4.93.42,7.4a4.49,4.49,0,0,0,.34,1.28,6.47,6.47,0,0,0,6.81,3.7c2.66-.3,4.52-2,5.28-5A26.14,26.14,0,0,0,349.79,140.3ZM289.17,71.5v8.68h18.16V71.5Zm108.48,0H379.51v8.68h18.14Z"/></g><g id="B_vector" data-name="B vector"><path d="M219.63,297.63a7.75,7.75,0,0,0-.36-3c-.81-1.88-.57-3.94-1.31-5.87-.5-1.29-.8-2.77-1.36-4.05-1.3-3-2.33-6.16-4.25-8.89s-3.66-5.57-5.76-8.19a72.8,72.8,0,0,0-6.71-7.1C196,256.77,191.29,254,186.8,251c-.89-.6-.54-.85,0-1.2A38.18,38.18,0,0,1,192.7,247a16.05,16.05,0,0,0,8.41-7.49,29.93,29.93,0,0,1,2-3.28c1.39-1.93,3-3.66,4.54-5.47a8.55,8.55,0,0,0,2.1-3.46,26.18,26.18,0,0,1,3.16-8.32,14.53,14.53,0,0,0,1.27-3.1,1,1,0,0,0-.47-1.22c-.54-.24-.76.27-1,.6-1.22,1.71-2.47,3.4-3.61,5.16a23,23,0,0,1-6.74,6.84c-1.74,1.15-3.66,2.05-5.42,3.18-2.15,1.38-4.51,2.46-6.23,4.45a7.39,7.39,0,0,1-2.26,2.15,1.62,1.62,0,0,1,.42-1.4,61.19,61.19,0,0,1,4.63-5.52,52.49,52.49,0,0,0,4.74-7c1.75-2.84,2.89-6,4.73-8.78.26-.39.57-.82.24-1.29a1.32,1.32,0,0,0-1.37-.45c-.57.11-.68.6-.73,1.08a7.4,7.4,0,0,1-.9,3.12,44.14,44.14,0,0,0-4,6.94c-.31.73-.55,1.55-1.49,1.94A5.21,5.21,0,0,1,195,223c.67-2.21,2-4.12,2.72-6.31.14-.42.35-.83-.06-1.18a1.23,1.23,0,0,0-1.41-.27,1.61,1.61,0,0,0-1,1.67,5.69,5.69,0,0,1-.88,4,11.34,11.34,0,0,0-1.38,5.1,7.32,7.32,0,0,1-1.82,4.44,20.65,20.65,0,0,0-3.2,3.86c-1.81,3.35-3.19,6.89-4.68,10.39a1.59,1.59,0,0,1-1,1,27,27,0,0,1,.2-5.57,5,5,0,0,0,0-2.43,4,4,0,0,1,.36-3.38,2.84,2.84,0,0,0,.26-2.16,1.53,1.53,0,0,0-2.25-1.07,2.54,2.54,0,0,0-.68,3.41,5.13,5.13,0,0,1,.6,3.38c-.31,2.53.16,5.06-.1,7.59a3.75,3.75,0,0,0,.27,1.61c.09.24.41.5.16.73s-.56,0-.82-.2c-2.28-1.45-4.91-2.06-7.38-3.06a47,47,0,0,0-6.22-2.23c-1.69-.43-3.35-1-5.06-1.31s-3.46-.83-5.17-1.24c-2.21-.54-4.47-.87-6.68-1.41-1.52-.37-3.2,0-4.78-1.13a22.21,22.21,0,0,0,5.41-.77c2.43-.52,4.8-1.15,7.16-1.88,2.81-.87,5.66-1.55,8.4-2.65,2.46-1,4.79-2.21,7.23-3.21a48.35,48.35,0,0,0,7.92-4.63,70.47,70.47,0,0,0,9.85-7.82,65.66,65.66,0,0,0,9.41-11.71,40.91,40.91,0,0,0,3-5.66,38.19,38.19,0,0,0,2.23-5.58c.39-1.39.5-2.83.94-4.18a36.37,36.37,0,0,0,1.36-8.25,35.11,35.11,0,0,0-.44-9c-.41-2.32-1-4.62-1.28-7a22.54,22.54,0,0,0-1.09-4.37,38.5,38.5,0,0,0-2.33-5.92c-1.21-2.29-2.13-4.72-3.71-6.84s-3.09-4.37-4.9-6.36a64.56,64.56,0,0,0-10.25-9c-2.91-2.1-6.12-3.64-9.14-5.54a35.54,35.54,0,0,0-4.75-2.16,69.71,69.71,0,0,0-7.82-3.27c-1.39-.43-2.83-.73-4.22-1.26a23.63,23.63,0,0,0-4-1.19c-1.82-.32-3.65-.75-5.43-1.19a72.07,72.07,0,0,0-9.08-1.35c-3-.37-6-.33-9-.75-4.37-.6-8.8-.24-13.21-.27-4.21,0-8.42.06-12.64.09-5.38,0-10.73.75-16.1.79-11.08.08-22.16,0-33.24.06-.24,0-.47,0-.7,0-.93,0-1.39-.35-1.35-1.31a3.5,3.5,0,0,0-.2-1.73c-1.93-3.63-3.53-6-8.37-6.09-3.9-.06-7.4.65-10.19,3.64-1.16,1.26-2.58,2.29-3.2,4a2.08,2.08,0,0,1-2.19,1.54c-1.79,0-3.59,0-5.38,0-4.1,0-8.2,0-12.29,0-2.11,0-2.42.32-2.43,2.47,0,.58,0,1.17,0,1.75-.07,1.11.37,1.72,1.54,1.67a1.76,1.76,0,0,1,1.86,1.32,7.16,7.16,0,0,0,2.16,3c.22.2.6.3.5.7s-.48.5-.83.52a8.92,8.92,0,0,0-2.33.68,14.49,14.49,0,0,1-3.28,1.13,14.55,14.55,0,0,0-3.7,1c-.45.15-.93.34-.91.92a1.2,1.2,0,0,0,.85,1,4.27,4.27,0,0,0,1.13.22c3.77.52,7.56.11,11.34.22a10.67,10.67,0,0,0,6.46-2.29c2.13-1.5,3.26-3.76,4.42-5.93a4.06,4.06,0,0,1,4.26-2.54c4.79.19,9.59.05,14.39.07.53,0,1.27-.26,1.53.23s-.28,1.15-.52,1.7c-.06.14-.21.24-.29.37-.7,1.17-1.53,2.24-2.17,3.46-1.16,2.24-2.44,4.41-3.69,6.6-.21.35-.7.69-.82,0-.18-.95-.78-1.7-1-2.62A6.45,6.45,0,0,0,37,128c-1.59-1-3.55-1.41-4.88-2.89-.29-.33-.7-.71-1.23-.43a1.24,1.24,0,0,0-.53,1.23,10.5,10.5,0,0,0,1.32,4.89c1.35,2.62,2.07,5.42,3.15,8.11.71,1.79,1.46,3.64,3.22,4.73a2,2,0,0,1,1,2.25,12.32,12.32,0,0,0,0,2.91c.1,1.16.08,2.34.11,3.51,0,.19,0,.42-.22.49a.44.44,0,0,1-.49-.23c-.17-.22-.29-.47-.44-.69-1-1.5-1.35-3.32-2.34-4.8-1.77-2.66-4.36-4.52-6.7-6.63-1.35-1.21-3-2.16-3.6-4a2.74,2.74,0,0,0-1-1.14,1.55,1.55,0,0,0-1.67-.13c-.61.31-.51.9-.45,1.45a2.9,2.9,0,0,0,1.29,1.87c1.12.95,2.59,1.41,3.58,2.58a15.21,15.21,0,0,0,4.38,3.45,7.6,7.6,0,0,1,3.08,3.56c.14.28.26.64,0,.89s-.55-.06-.81-.17a3.83,3.83,0,0,1-1.66-1.05,4.25,4.25,0,0,0-3.26-1.8,1.14,1.14,0,0,1-.8-.44c-1.3-1.49-3.32-2.11-4.47-3.84a1.3,1.3,0,0,0-2,0,1.44,1.44,0,0,0,0,1.94c.32.43.8.93,1.32.89a6.16,6.16,0,0,1,3.25,1.12,21.94,21.94,0,0,1,6.06,3.87,4.6,4.6,0,0,0,1.8,1.27,4.77,4.77,0,0,1,2.29,1.75,26,26,0,0,0,3.61,4,3.41,3.41,0,0,1,.87,1.09,17.11,17.11,0,0,0,7.76,8.11A2.19,2.19,0,0,1,49.91,168c0,5.69,0,11.39,0,17.09a2,2,0,0,1-.12,1.14.92.92,0,0,1-.7-.55,28.27,28.27,0,0,1-2.9-6A36.75,36.75,0,0,0,43.3,172,14.65,14.65,0,0,0,39,166.85a19.88,19.88,0,0,0-5.21-2.21,28.76,28.76,0,0,1-6.39-3.27c-2.88-1.88-5-4.54-7.22-7.1a1.29,1.29,0,0,0-1.54-.52c-.68.28-.64.94-.45,1.51a9.45,9.45,0,0,1,.49,3.11A7.24,7.24,0,0,0,20,162.08c1.38,2.24,3.05,4.31,4.47,6.54a14.37,14.37,0,0,1,2.33,6.1,39.75,39.75,0,0,0,1.13,5.83c.72,2.6,2.3,4.82,3.55,7.17,1.67,3.15,3.52,6.15,4.41,9.69a24.61,24.61,0,0,0,2.42,6.51c1.64,2.76,3.4,5.36,6.48,6.8a17.29,17.29,0,0,0,3,.86c1.22.32,1.41.95.61,1.92a11.77,11.77,0,0,1-1.28,1.36c-1.49,1.3-2.24,3.16-3.49,4.65A28.1,28.1,0,0,0,41,223.35c-1.29,2.23-2.51,4.51-3.91,6.69-.08-.06-.13-.08-.14-.1a1.29,1.29,0,0,1,0-.34,11.36,11.36,0,0,0-1.33-7.87,20.48,20.48,0,0,1-2.64-7,26.34,26.34,0,0,0-2.05-7.59,17.67,17.67,0,0,0-1.74-3.41c-.23-.3-.43-.72-.91-.55a.91.91,0,0,0-.54,1,6,6,0,0,0,.11,2.2,15.27,15.27,0,0,1,.61,5.65,26.49,26.49,0,0,0,1.28,6.85A37.45,37.45,0,0,1,31.1,225a35.22,35.22,0,0,1-.27,7.94,16,16,0,0,0,.66,6.7c.52,1.64,1.12,2.92.79,4.83a32.55,32.55,0,0,0-.39,9.2,13.27,13.27,0,0,1,0,1.41c0,.4-.15.53-.59.4a5.63,5.63,0,0,1-1.91-1.12c-2.29-1.87-4.92-3.31-6.89-5.55a18.41,18.41,0,0,1-3-3.88c-1.06-2.15-1.13-4.64-1.86-6.94a17.47,17.47,0,0,0-1.41-3.66c-1.35-2.31-2.18-4.9-3.82-7.07a18.29,18.29,0,0,1-1.2-2.1,12.31,12.31,0,0,1-.86-4.08,2.74,2.74,0,0,0-1.77-2.15c-.81-.35-1.4.28-1.92.81a2,2,0,0,0-.18,2.51,4.85,4.85,0,0,0,2.37,2.48,1.84,1.84,0,0,1,1,.94c1.66,3.2,3.4,6.36,5,9.6.46.94,1.31,1.8,1.19,3.34a33.53,33.53,0,0,0-6.54-6.23,19.84,19.84,0,0,1-5-5,4.73,4.73,0,0,0-2.07-1.81c-.76-.38-1.43-.5-2,.16a1.76,1.76,0,0,0-.09,2.19,4.49,4.49,0,0,0,2.75,2,5.33,5.33,0,0,1,2.41,1.35,13.28,13.28,0,0,0,1.41,1.21,35.2,35.2,0,0,1,6.68,6c2.51,2.74,3.77,6.27,5.5,9.52a11.26,11.26,0,0,1-1.27-1,11.94,11.94,0,0,0-1.88-1.38,18.12,18.12,0,0,1-5.06-3.24,2.22,2.22,0,0,0-2.28-.55.93.93,0,0,0-.81,1A2.6,2.6,0,0,0,10,245.23a14.81,14.81,0,0,1,7.1,3.22c1,.73,1.72,1.88,3,2.11a6.36,6.36,0,0,1,3.19,1.59,23.29,23.29,0,0,0,5,3.47,9.27,9.27,0,0,1,4.56,6A45.19,45.19,0,0,0,35.32,268c.66,1.42,1.3,2.86,2,4.48a19.14,19.14,0,0,1-2.72-.83c-1.8-.83-3.14-2.28-4.76-3.35-.91-.61-2-.67-2.91-1.42a14.8,14.8,0,0,0-2.21-1.71,1.17,1.17,0,0,0-1.6.12c-.42.5-.1,1,.21,1.37a2.25,2.25,0,0,0,.57.58c3.23,2,5.09,5.22,7.25,8.13a16.33,16.33,0,0,0,6.47,5.19A24.11,24.11,0,0,1,43.42,284c1.33,1.11,2.62,2.32,4.6,2.25s1.87,0,1.87,1.92q0,27.09,0,54.19a2.15,2.15,0,0,1-.17,1.27,14.87,14.87,0,0,1-1.84-3.07c-1.89-3.38-3.45-7-6.18-9.83a2.6,2.6,0,0,1-.87-1.49,33.35,33.35,0,0,1-.5-5c.06-1.67-.57-3.29-.57-5a2.94,2.94,0,0,0-.43-1.07c-.75-1.69-1.52-3.37-2.23-5.08s-.77-3.79-1.6-5.58c-.39-.82-.75-1.57-1.75-1.3s-.85,1.18-.83,2a1.6,1.6,0,0,0,.46,1.05c2.34,2.51,3,5.81,4.11,8.87a39.22,39.22,0,0,1,1.2,5c.2.87.85,1.61.8,2.55,0,.68.17,1.71-.43,1.94s-1-.77-1.44-1.27a3.49,3.49,0,0,1-.49-1.05,36,36,0,0,0-3.43-7.36c-1.49-2.34-3.33-4.49-4.26-7.17a4.54,4.54,0,0,0-.58-1.14,1.15,1.15,0,0,0-1.32-.53c-.52.15-.68.58-.76,1.07A2.36,2.36,0,0,0,28,312.72a5.55,5.55,0,0,1,2,2.22c1.33,2.4,2.59,4.84,3.93,7.24A24.94,24.94,0,0,1,35.62,326a10.47,10.47,0,0,0,3.27,5.12c1.47,1.15,2.29,2.8,3.76,4.31a4.9,4.9,0,0,1-2.77-1.24c-1.83-1.69-4-2.94-5.79-4.71a1.57,1.57,0,0,0-1.87-.21c-.33.16-.6.44-.45.84.23.61.41,1.3,1.2,1.45,2.22.43,3.91,1.83,5.67,3.11,1.35,1,2.48,2.43,4.1,2.85a3.71,3.71,0,0,1,2.59,2.56c1.18,2.83,3,5.34,4.11,8.21a8.38,8.38,0,0,1,.32,3.67,3.41,3.41,0,0,1-.88-1,15.55,15.55,0,0,0-5.64-5.75,46.81,46.81,0,0,0-5-2.38c-4.33-2.09-7.67-5.43-10.84-8.91a21.62,21.62,0,0,0-16-7.46,7.75,7.75,0,0,1-3.77-1.39,34.93,34.93,0,0,1-5.5-4.68c-.44-.41-.89-1.21-1.65-.7S0,320.93.18,321.62a4.11,4.11,0,0,0,.36.73c1,2.21,2,4.45,3.1,6.62.84,1.67,1.5,3.4,2.28,5.08a52,52,0,0,1,2.84,6.35,43,43,0,0,0,1.91,5.85,28.35,28.35,0,0,0,4.45,6.91c1.55,1.74,3.29,3.32,4.75,5.15a18,18,0,0,1,3.22,5.24,41.46,41.46,0,0,0,3.41,6.87c.63,1.12,1.8,1.78,2.43,2.92a2.21,2.21,0,0,1-1.33.19H11.91c-2.94,0-2.94,0-2.94,2.89,0,3.15,0,3.18,3.21,3.18l79,0a12,12,0,0,1,2.68.13,43.11,43.11,0,0,0,9.2.72c9.44.1,18.88,0,28.32,0,4.25,0,8.41-1.1,12.67-1.09a2.44,2.44,0,0,0,1.12-.28,3.85,3.85,0,0,1,2.14-.46c2.27.13,4.34-.85,6.52-1.22a19.1,19.1,0,0,0,4-.92,33.93,33.93,0,0,1,5-1.27c1.52-.36,2.93-1,4.4-1.41,2.17-.67,4.23-1.7,6.41-2.38a20.26,20.26,0,0,0,2.92-1.13c2-1,4-2.21,6.1-3.1a50.83,50.83,0,0,0,9.72-5.93,60.11,60.11,0,0,0,13.53-13,38.9,38.9,0,0,0,3.71-5.07c1.67-3.27,3.85-6.29,5-9.82.7-2.13,1.46-4.25,2.24-6.35.53-1.42.75-2.93,1.2-4.35a11.65,11.65,0,0,0,.66-3.39,4.15,4.15,0,0,1,.16-1.62,11.26,11.26,0,0,0,.72-4.58C219.66,308,219.64,302.82,219.63,297.63ZM26.79,123.57c-.57,1.62-2.07,2.08-3.43,2.5a8.6,8.6,0,0,1-6.9-.63A4.29,4.29,0,0,1,14.82,124c-.23-.38-.74-.73-.49-1.24s.82-.35,1.27-.35c1.67,0,3.35,0,5,0h0c1.79,0,3.58,0,5.37,0C26.9,122.39,27.06,122.78,26.79,123.57Zm8.92,15.18s.17-3-1-4.54a17.88,17.88,0,0,1-1.94-3.39s-.37-1.44.92-.55a13.68,13.68,0,0,1,2.66,6.15,3.19,3.19,0,0,0,1.06,2.76C38.74,140.3,36.83,140.46,35.71,138.75Zm1.85-.88a27.27,27.27,0,0,0-.79-4.61,14.28,14.28,0,0,0-2.67-3.85s-1.29-1.48.56-.72c1.42.58,2.1.72,3.49,5.72.2.71.63,1.69.88,2.81C39.4,138.85,38.43,142,37.56,137.87ZM35.34,373.38a10.73,10.73,0,0,1-8-6.37c-1.54-3.59-2.91-7.3-5.51-10.32-1.77-2.07-3.67-4-5.51-6a22.66,22.66,0,0,1-3.2-5.51c-.92-1.88-1.48-3.9-2.35-5.8a4.18,4.18,0,0,1-.35-2,16.73,16.73,0,0,1,3.87,4c1.59,2.44,2.74,5.12,4.16,7.65a17,17,0,0,0,5.42,5.54c1.39,1,2.48,2.26,3.92,3.12,3,1.75,5,4.45,6.87,7.19A28.31,28.31,0,0,0,40.28,371c1.15.9,2.45,1.61,3.83,2.5C41.06,373.5,38.08,374,35.34,373.38Zm11.41-1.89a.5.5,0,0,1-.54,0,16.75,16.75,0,0,1-6.51-4.32c-2.51-2.73-4.54-5.81-6.88-8.66-1.41-1.71-3.34-2.79-4.83-4.38a32.84,32.84,0,0,0-3-2.35,19.76,19.76,0,0,1-6.3-8.53c-.86-2.39-2.64-4.08-4.18-6C13.41,336,12,335,10.93,333.74c-.35-.39-.66-.82-1-1.23l.16-.19a25.27,25.27,0,0,1,2.26,1.33c1.26.91,2.68,1.6,3.92,2.5,2.48,1.81,5.34,3.31,6.74,6.27.78,1.63,2.26,2.69,3.13,4.21,1.51,2.65,4.1,4.13,6.34,5.93,1.43,1.15,3.3,1.83,4.89,2.88A10.64,10.64,0,0,1,42,360.8c.63,1.78,1.62,3.43,2.25,5.21A17.45,17.45,0,0,0,46.73,371C46.86,371.13,46.93,371.32,46.75,371.49Zm2.07-1.85a2.08,2.08,0,0,1-1-.95c-1.41-2.23-1.95-4.78-2.72-7.26A13.14,13.14,0,0,0,43,357.08a20.7,20.7,0,0,0-5.91-5c-4.2-2.46-8.09-5.36-10.59-9.77a21.35,21.35,0,0,0-5.38-6.39c-1.61-1.26-3.53-2.11-5.2-3.3s-3.69-2.12-5.55-3.54a2.15,2.15,0,0,1,1.91.08,6.74,6.74,0,0,0,3,.6,10.62,10.62,0,0,1,7.08,3.05c3.34,2.87,6.2,6.23,9.4,9.24a17.83,17.83,0,0,0,4.68,2.75c2.42,1.16,4.66,2.64,7,4,1.5.85,2,2.5,2.91,3.87,1.87,3,1.94,6.36,1.94,9.68,0,2.07.84,4,.76,6A2.29,2.29,0,0,1,48.82,369.64Zm1.07-207.95a9.21,9.21,0,0,1,0,1.05c-.08.66-.4.89-1,.56a12.47,12.47,0,0,1-5.51-5.81c-2.42-4.74-2.17-9.78-1.68-14.83.27-2.84,1.59-5.31,2.9-7.78s2.88-4.86,4.31-7.3a2.75,2.75,0,0,1,.89-1,2,2,0,0,1,.16,1.21Q49.9,144.73,49.89,161.69Zm-19.68,6.46c.22-.22.44-.05.62.09,2,1.61,4.1,3.13,5,5.82S38,179.28,39,181.91c.76,2,1.33,4,2.09,6a25.56,25.56,0,0,0,2.8,5.1,20.39,20.39,0,0,1,3,5.53c.58,2.06,1.45,4.19,1.16,6.79a17.91,17.91,0,0,1-4.55-5.49c-1.14-2.16-1.74-4.57-2.82-6.75a19,19,0,0,0-2.75-4c-1.13-1.31-1.6-2.92-2.4-4.38a57.06,57.06,0,0,1-2.56-6.58,28.77,28.77,0,0,1-.82-3.73,27.09,27.09,0,0,0-1.89-5.57A.57.57,0,0,1,30.21,168.15Zm16.18,41.47A28.62,28.62,0,0,1,41.56,206a12.13,12.13,0,0,1-1.65-2.79,45.89,45.89,0,0,1-2.55-6.2c-.39-1-.47-2.17-.86-3.25a59.41,59.41,0,0,0-3.25-6.66,41.58,41.58,0,0,1-3.36-7.37c-.73-2.53-1.11-5.13-1.76-7.67a13.43,13.43,0,0,0-2.85-5.66,14.38,14.38,0,0,1-2.08-3.23c2.17,1.84,4.44,3.6,5.46,6.46.61,1.71,1.17,3.42,1.72,5.15,1,3.08,1.3,6.36,2.72,9.3a44.83,44.83,0,0,0,5.18,8.78,11.61,11.61,0,0,1,2,4.51,18.42,18.42,0,0,0,3.64,7c1.4,1.73,3.45,2.82,4.48,4.86.07.13.15.26.28.47A2.5,2.5,0,0,1,46.39,209.62Zm.9-15.66a52.59,52.59,0,0,1-4.92-9.33,115.64,115.64,0,0,0-5.45-13.18,14.65,14.65,0,0,0-3.67-4c-.4-.35-1.24-.72-1-1.1s.94.2,1.44.28a10.53,10.53,0,0,1,5,2.53c1.55,1.22,2.22,2.93,3.06,4.59a34,34,0,0,1,2.57,7.18A27.5,27.5,0,0,0,48.17,189a10,10,0,0,1,1.73,6.4c-.09,1.08,0,2.17,0,3.49A30,30,0,0,0,47.29,194Zm2.22,86.9c-.75.33-1.14-.56-1.53-1a8.21,8.21,0,0,1-2.25-3.74,4.37,4.37,0,0,0-.47-.87c0-.17-.12-.37-.21-.63a3.4,3.4,0,0,1,0-.69,3.19,3.19,0,0,0-.15-1.84,9.38,9.38,0,0,1-.88-6c.51-3.34-.44-6.68.31-10,.14-.59,0-1.49-.85-1.52s-1.36.66-1.45,1.53a4.86,4.86,0,0,0,.39,2.51,7,7,0,0,1,.53,3.54c-.07,1.08.16,2.21-.52,3.18-.2.28-.61.84-.78.13a15,15,0,0,1-.82-2.42c-.12-1.77-.69-3.53-.06-5.31a1.39,1.39,0,0,0,0-.7,1.43,1.43,0,0,0-1.48-1.24c-.8,0-.93.7-1,1.35a3.64,3.64,0,0,0,0,.81c.28,1.8,1.1,3.49,1,5.36a1.47,1.47,0,0,0,.27.64A57.21,57.21,0,0,0,43,270.78c.68,1,.6,2.13.83,3.22,0,.15.13.29.17.44a1.74,1.74,0,0,0,.13.31c.14.43.69,1.2.7,1.42,0,.4.13,1-.44,1.08s-.82-.41-1.12-.75a65.17,65.17,0,0,1-4.48-6.37,25.67,25.67,0,0,1-3.19-7.44,32.63,32.63,0,0,1-1.25-14.5,7.81,7.81,0,0,0,.11-1.28,22.36,22.36,0,0,1,1.6-7.08c.35-1.07.6-2.16.91-3.24.73-2.49,2.13-4.64,3.2-7,1.57-3.38,3.86-6.29,5.9-9.36.86-1.29,1.93-2.43,2.92-3.64.15-.17.33-.39.58-.32s.29.42.31.68,0,.7,0,1.05V248.6q0,15.27,0,30.54C49.88,279.74,50.17,280.57,49.51,280.86ZM49,116.5c-1.21,0-2.42,0-3.63,0s-2.41,0-3.62,0h0c-2.54,0-5.07,0-7.61,0-.41,0-.92.09-1.13-.41s.21-.73.44-1c2.57-3.13,5.72-5.36,9.86-5.51,2.86-.11,5.69.8,6.73,4.38a4.2,4.2,0,0,0,.26.52C51,115.92,50.64,116.48,49,116.5ZM149.25,245.82a39.38,39.38,0,0,1,8.65,5.46,43.08,43.08,0,0,1,6.4,6.62,57.49,57.49,0,0,1,3.38,5.43c.28.45.29.79-.18,1.07-1.38.86-2.73,1.76-4.19,2.49-2.76,1.39-5.79,1.79-8.73,2.31a13.88,13.88,0,0,1-7.49-.35c-1.24-.46-2.62-.44-3.92-1a20.93,20.93,0,0,1-4-1.88,43.38,43.38,0,0,1-5.35-3.53c-.91-.82-1-1-.34-1.36a5.59,5.59,0,0,1,3-.56c.25,0,.53,0,.76.05s.63,0,.94,0a63.77,63.77,0,0,1,8.06.21,6.32,6.32,0,0,0,2.21-.07,1.1,1.1,0,0,0,1-1.27c0-.65-.33-1.14-1-1.19a3.89,3.89,0,0,0-3,.54,3.25,3.25,0,0,1-2.23.54c-.93,0-1.86-.16-2.81-.25,1.24-.82,2.68-.91,4-1.39a62.79,62.79,0,0,1,6.15-2.42,2.07,2.07,0,0,0,1.5-1.77,1.34,1.34,0,0,0-1-1.43,2.36,2.36,0,0,0-3,1.21,3.33,3.33,0,0,1-1.4,1.5,27.66,27.66,0,0,1-6.12,2.45c-1.29.44-2.26,1.37-3.46,1.9a5.21,5.21,0,0,1-.63.18,11.27,11.27,0,0,1-3,.55c-2.37,0-3.73-1.61-5.2-3.11-2.1-2.14-3.68-4.72-5.79-6.86a7.82,7.82,0,0,1-1-1.82c-1.07-1.87-2.65-3.36-3.74-5.21-.17-.3-.51-.58-.36-.93s.61-.25.94-.25h8.66c1.44,0,2.9.1,4.33,0,3.35-.3,6.61.44,9.83,1.08A39.25,39.25,0,0,1,149.25,245.82Zm6,49.32a12,12,0,0,1-3.25-5.69c-.26-.94-.77-1.76-1-2.7a25.12,25.12,0,0,0-3.87-7.87c-1-1.32-2.56-1.88-3.63-3.1a30.68,30.68,0,0,1-3.49-4.22c-.14-.23-.4-.46-.23-.73s.49-.06.7,0c2.68,1.22,5.53,2.09,8,3.81a6.4,6.4,0,0,1,3.1,4.54,10.25,10.25,0,0,0,2.78,5.15,78.14,78.14,0,0,1,5.41,7c.11.16.31.3.34.47.58,3.1,1.64,6.2.16,9.4A30.94,30.94,0,0,0,155.23,295.14Zm2.19,8a.59.59,0,0,1-.76,0,15.2,15.2,0,0,1-4.82-5.25c-1.31-2.64-1.82-5.59-3.41-8.1a12.8,12.8,0,0,0-3.94-4.37,7.17,7.17,0,0,1-1.32-1.46,7.83,7.83,0,0,0-1-1.23,13.14,13.14,0,0,1-4.13-5.83,12,12,0,0,1-1-7.31c1.88,4.54,5.54,7.19,8.65,10.3a13.45,13.45,0,0,1,2.95,5.72c.82,2.49,1.52,5,2.41,7.49s2.8,4,4.28,5.88a37.41,37.41,0,0,1,2.15,3.45C157.58,302.64,157.69,302.94,157.42,303.15Zm-39.76-72.4c2.46-2.27,4.41-5,7-7.15.79-.65,1.12-1.76,1.93-2.46,1.81-1.59,3.86-2.86,5.79-4.29a21.09,21.09,0,0,0,4.5-4.69c.85-1.18,1.84-2.26,2.89-3.53a5,5,0,0,1-.12,2,12.53,12.53,0,0,1-6.82,9,8.48,8.48,0,0,0-3,2.73,24.36,24.36,0,0,1-5,5.66,33.56,33.56,0,0,1-4.15,2.09c-1.22.68-2.57,1.15-3.94,2A2.9,2.9,0,0,1,117.66,230.75Zm-2.91.29a5.2,5.2,0,0,1-.84.6,22.23,22.23,0,0,1,3.55-6.41c.9-1.26,2.5-2,3.57-3.16,1.51-1.64,3.63-2.53,5-4.37a24.74,24.74,0,0,1,6.06-5.93c1.53-1,3.23-1.82,4.78-2.91.28.58-.09.81-.35,1.07a16.79,16.79,0,0,0-3,3.89,1.86,1.86,0,0,1-.72.75c-2.16,1.31-3.87,3.24-6.16,4.38-1.1.56-1.71,1.68-2.51,2.58-1.42,1.59-3,3-3.91,5.05a2.68,2.68,0,0,1-1.26,1.18A14.81,14.81,0,0,0,114.75,231Zm25.7-16a23.8,23.8,0,0,0,1.93-5,1.32,1.32,0,0,1,.61,1.21c.08,2.86.75,5.74-.49,8.54a14.78,14.78,0,0,1-1.47,2.5A18.47,18.47,0,0,0,138.6,226c-.86,2.2-2.79,3.28-4.67,4.37a11.83,11.83,0,0,1-6.74,1.85,11.48,11.48,0,0,0-3.81.49,4.6,4.6,0,0,1-2.27.07c1-1,2.15-1.1,3-1.7,2.1-1.41,4.25-2.71,5.63-4.95a17.69,17.69,0,0,1,5.83-5.81A13.42,13.42,0,0,0,140.45,215.06ZM94.85,121.7c8.27-.07,16.54-.17,24.81,0a60.17,60.17,0,0,1,8.46.85,58.79,58.79,0,0,1,10.2,2.63,39.54,39.54,0,0,1,12.42,7.24,27.89,27.89,0,0,1,5.9,6.74c.93,1.57,1.93,3.1,2.88,4.66,1,1.73,1.59,3.69,2.46,5.5,1.1,2.27,1.55,4.78,2.49,7.12a3.94,3.94,0,0,1,.17,1.38,8.12,8.12,0,0,0,.6,3.08,2.55,2.55,0,0,1,.25,1c.27,6.18,1.36,12.31,1,18.53-.15,2.72.12,5.49-.28,8.18s-.48,5.59-.83,8.36a36.86,36.86,0,0,1-.91,5.48,54.81,54.81,0,0,1-3,8.9c-.76,1.59-1.26,3.31-2.09,4.9a35.35,35.35,0,0,1-9.13,11.08,30.83,30.83,0,0,1-7.6,4.51c-1.18.48-2.52.76-3.77,1.15-2,.61-4.05.7-6,1.49a6.68,6.68,0,0,1-2.57.16c4.32-1,7.84-2.69,9.92-6.53,1.28-2.35,2.94-4.47,4.08-6.92a12.14,12.14,0,0,0,.93-6.81,57.82,57.82,0,0,1-.29-13,5.51,5.51,0,0,1,.37-1.22c.32-.95.17-1.74-.83-2.13s-1.46.28-1.93.92c-1.18,1.63-2.32,3.3-3.51,4.93-2,2.7-4.7,4.46-7.54,6.09a18.38,18.38,0,0,0-1.72,1.21c-2.63,2-4.68,4.52-7,6.87-1.8,1.86-4,3.35-5.87,5.15a19.63,19.63,0,0,0-5,7.35,9.63,9.63,0,0,0-.78,3.73c0,.71-.32.82-.86.46s-1.18-.76-1.73-1.19a14.37,14.37,0,0,0-7.89-2.78,9.53,9.53,0,0,0-5.2.93c-.31.17-.63.39-1,.16s-.09-.5,0-.75c.12-.54-.31-1-.27-1.61.77.69,1.17.26,1.68-.36a6.67,6.67,0,0,1,4.55-2.77,2.78,2.78,0,0,0,1.21-.42c1.28-.77,2.23-2,3.74-2.51.51-.17,1.19-.91.58-1.61s-1.23-.39-1.77.12-.75.79-1.12,1.2a2.37,2.37,0,0,1-1.31.92c-.23,0-.48.1-.62-.16s0-.38.15-.53c.93-1.13,1.58-2.51,2.93-3.28a1.49,1.49,0,0,0,.71-1.62.79.79,0,0,0-.74-.64c-.7-.1-1.06.37-1.44.83-.55.66-.3,1.6-1,2.29-1,1-1.88,2.17-3,3.1a11.75,11.75,0,0,0-3.57,4.29,4,4,0,0,1,.08-2.67,15.17,15.17,0,0,0,0-9.07,18.44,18.44,0,0,1-.41-4.64c-.1-1.4,0-2.81,0-4.21,0-.69-.07-1.39-1-1.43s-1.11.56-1.15,1.3a5.38,5.38,0,0,0-.07.69c.16,3-1,5.9-1.12,8.9a9.1,9.1,0,0,1-.89,2.88c-.55,1.33-.89,2.73-1.31,4.08s-1.06,3-1.42,4.54a2.31,2.31,0,0,1-.3-1.6q0-25.22,0-50.44c0-1.76.13-1.77,1.77-1.28,1.37.41,2.79.63,4.15,1.11,3.92,1.39,8,1.08,12,.93a22.63,22.63,0,0,0,8.25-2.2,37.82,37.82,0,0,0,7.61-5,9.52,9.52,0,0,0,4-6.17,52.86,52.86,0,0,0,.77-7.18,7.13,7.13,0,0,1,.77-2.32c.77-2.19,1-4.54,1.93-6.67a10.6,10.6,0,0,1,2-3.51c.5-.51,1.13-1.17.54-1.93s-1.46-.51-2.15-.15c-1.78.93-3.79,1.37-5.51,2.44-.89.55-1.87,1-2.74,1.52a36.91,36.91,0,0,1-4.31,2.05,27.91,27.91,0,0,0-8.45,5.45,19.21,19.21,0,0,0-2.78,3.86c-1.64,2.84-4.15,4.43-7,5.74-1.55.71-3,1.57-4.53,2.37-.24.12-.49.4-.73.17s0-.57.13-.84c1.26-2.26,2.32-4.63,3.45-6.95a30.24,30.24,0,0,0,2.28-6.54c.92-4,1.68-8.14,1-12.26-.53-3-1.06-6.13-2.64-8.85s-3.29-5.31-6.06-7a4.73,4.73,0,0,1-1.38-1.26A35.09,35.09,0,0,1,94.85,121.7Zm12.42,113.71c-.84.29-11.8.4-14.5.14C96.33,232.25,103.85,231.81,107.27,235.41Zm-8.76-65.79c1.4.08,2.81,0,4.21,0a7,7,0,0,0,4.91-2.07c1.68-1.68,3.13-3.63,5.2-4.84a7.52,7.52,0,0,0,3.33-3c.57-1.2,1.18-2.36,1.85-3.5a29.67,29.67,0,0,1,4.61-5.39c.22-.23.52-.67.86-.42s.2.74.08,1.09a12.58,12.58,0,0,1-2.67,4.95c-1.64,1.64-2.45,3.82-3.43,5.89-.7,1.48-1,3.21-2.54,4.23a8.79,8.79,0,0,1-2.7,1.32,35.21,35.21,0,0,0-8.09,3.37,6.23,6.23,0,0,1-3.73.76c-1.83-.26-3.74-.22-5.47-1.06a5.29,5.29,0,0,0-1.14-.27A8.22,8.22,0,0,1,98.51,169.62Zm-4-1.64a1.88,1.88,0,0,1,1.2-1.1,34.46,34.46,0,0,0,6.7-2.93,10.93,10.93,0,0,0,4-4.17,17.29,17.29,0,0,1,9.16-8.21c1.53-.57,3-1.43,4.73-2.14a10.74,10.74,0,0,1-2.16,2.51,9.87,9.87,0,0,0-2.18,3.27c-.61,1.4-1.61,2.55-2.29,3.9a6.35,6.35,0,0,1-2.86,2.53,9.09,9.09,0,0,0-3.17,3,7.84,7.84,0,0,1-5.7,3.25A55.73,55.73,0,0,1,94.47,168Zm2.3,5.74a11.59,11.59,0,0,0,10.59-2,5,5,0,0,1,2.18-1c1.44-.22,2.73-.86,4.13-1.18a6.51,6.51,0,0,0,4.38-3.58c1-2.07,1.94-4.21,2.91-6.31a6.94,6.94,0,0,1,1.84-2.39,9.83,9.83,0,0,0,1.89-2.23c-.16,1.64.14,3-.47,4.26a5.79,5.79,0,0,0-.48,2.62c0,3.83-2.48,6-5.29,7.82a67,67,0,0,1-7.3,4.12A10.5,10.5,0,0,1,106.7,175c-3,.05-5.93.11-8.89,0a15.49,15.49,0,0,1-5.15-1.25,18.21,18.21,0,0,0-2.25-.51A22.78,22.78,0,0,1,96.77,173.72ZM88,124.51c.51-.27.81.32,1.19.54,3.54,2,5.34,5.34,7.08,8.83,2.32,4.65,1.77,9.56,1.53,14.4a14.9,14.9,0,0,1-1.27,4.53c-.68,1.73-1.34,3.46-2,5.19a36,36,0,0,1-4,7.47,9.74,9.74,0,0,1-1.59,2.25,2,2,0,0,1,0-1.23c.87-2.53,1.71-5.06,2.63-7.56A6.91,6.91,0,0,1,93,156.71c1.21-1.29,1.47-3,1.75-4.61a5.13,5.13,0,0,1,1.33-2.88c.74-.78.84-1.8.3-2.27a1.75,1.75,0,0,0-2.41.61c-.73.93-.42,2-.53,3-.08.7.44,1.92-.61,1.93-.89,0-.44-1.2-.54-1.87a5.92,5.92,0,0,1,1.24-4.81,2.44,2.44,0,0,0,.31-2.83,1,1,0,0,0-1.33-.39A2.56,2.56,0,0,0,91,145.15c.2,1.69-.14,3.34-.1,5,0,1.17-.06,2.34,0,3.5.16,2.19-.75,4.08-1.48,6a19.24,19.24,0,0,1-1.52,3.67,1.55,1.55,0,0,1-.25-1.2q0-18.19,0-36.38C87.64,125.34,87.47,124.76,88,124.51Zm.42,247.83a2.61,2.61,0,0,0-.24.54,1.53,1.53,0,0,1-.51-1.5q0-30.7,0-61.42a5.47,5.47,0,0,1,0-.7c0-.31,0-.65.42-.76a.79.79,0,0,1,.82.32c.53.63,1,1.31,1.56,1.89a47.46,47.46,0,0,1,6.21,8.58,16.08,16.08,0,0,1,2.22,5.19,14.76,14.76,0,0,0,1,2.49c.6,1.49.63,3.13,1.34,4.58a1.9,1.9,0,0,1,.18.67c.27,4.37,1.16,8.68.28,13.13-.43,2.19-.61,4.46-1.21,6.62a7.61,7.61,0,0,1-1.64,3.56,1.92,1.92,0,0,1-.12-1.37c.59-2,.65-4.07,1.1-6.07a7,7,0,0,0-.63-4.4,29,29,0,0,0-2.48-4.33,16.05,16.05,0,0,1-1.54-4c-.7-2.13-1.37-4.15-3.2-5.67a4.36,4.36,0,0,1-1.44-3c0-.42-.13-.94-.68-.94s-.72.52-.76,1A14.25,14.25,0,0,0,90.5,335c.56,1,.56,2.24,1,3.33a47.09,47.09,0,0,1,1.7,4.79c.4,1.49.88,3,1.31,4.45a16.39,16.39,0,0,1,.61,5.28,3.2,3.2,0,0,1-.08.48,1,1,0,0,1-.72-.87c-.07-1.65-1.08-3-1.39-4.55a6.8,6.8,0,0,1,0-1.86,1.46,1.46,0,0,0-1.29-1.77c-1-.15-1.49.49-1.15,1.4a5.64,5.64,0,0,0,1,2c.64.7.11,1.56.18,2.44a1.93,1.93,0,0,1-1-1.78c-.08-.57-.13-1.38-.93-1.21a1,1,0,0,0-.54,1.64,20.84,20.84,0,0,0,2.38,3.95c1.36,1.51,2.91,3,3,5.35,0,.93.8,1.66,1.18,2.51a1,1,0,0,1,0,1.08A121.34,121.34,0,0,1,88.39,372.34Zm87.86-53.17a49.17,49.17,0,0,1-1.05,8.91c-.38,2.49-.41,5.11-1.43,7.5a2.21,2.21,0,0,0-.17.8c-.14,2.81-1.41,5.27-2.38,7.83-.71,1.87-1.4,3.76-2.22,5.59a48.33,48.33,0,0,1-2.82,4.54,35.09,35.09,0,0,1-10.53,10.92,38.42,38.42,0,0,1-7.11,3.94,57.12,57.12,0,0,1-9,2.81c-2.83.67-5.71,1.09-8.53,1.74-4.79,1.1-9.61.65-14.41.9-7,.37-14.12-.14-21.18-.2-.18,0-.36,0-.61,0,1.48-1.08,3.24-1.23,4.81-1.85a11.4,11.4,0,0,0,6-5.22,19,19,0,0,1,3.74-4.75,8.57,8.57,0,0,0,2.26-3.08c1.09-2.73,3.06-4.75,5-6.8a10.86,10.86,0,0,0,1.17-1.59.85.85,0,0,0,0-1.18.78.78,0,0,0-1.15.08c-1.93,1.73-4.32,2.74-6.42,4.21A11.86,11.86,0,0,0,107,357.8,45.63,45.63,0,0,1,101,365c-1.47,1.54-3.53,2-5.56,2.38,1.27-1.81,2.47-3.6,3.63-5.42a41.05,41.05,0,0,0,3.79-7.18,16.24,16.24,0,0,0,.86-3.25c.81-5.51,1.52-11,.87-16.62-.06-.5-.2-1.06.3-1.4s.9,0,1.32.17a2.3,2.3,0,0,0,.42.2c3.47.83,7,1.76,10.56,1.15a6.19,6.19,0,0,0,4.44-3.46c1-1.83,1.18-3.93,1.9-5.84a16.5,16.5,0,0,1,1.44-3.28,32.47,32.47,0,0,0,3.64-7.26,4.05,4.05,0,0,0,.17-2.2c-.61-2.6-1-5.28-2.35-7.63a3.36,3.36,0,0,1-.35-1.81c.1-3.43-.33-6.85,0-10.28a6.14,6.14,0,0,0,0-1.05,1.17,1.17,0,0,0-.75-1.21,1.4,1.4,0,0,0-1.41.32,9.36,9.36,0,0,0-2.7,3.74c-1.35,3.29-2.75,6.55-4.31,9.76-.89,1.83-1.3,3.89-2.12,5.76-1.24,2.81-2.65,5.45-5.51,7.14a15.23,15.23,0,0,0-4.92,5.4,4.69,4.69,0,0,0-1,2.33c0,.19-.1.42-.35.36a.88.88,0,0,1-.69-.72,9.19,9.19,0,0,0-.9-2.39,37,37,0,0,0-3.67-7.24c-2-2.8-3.74-5.82-6.61-7.93A11.19,11.19,0,0,1,89,305c-.31-.42-.08-.85.11-1.31a19.71,19.71,0,0,1,3-4.54,10.36,10.36,0,0,0,2-6.31,27.23,27.23,0,0,1,1.47-6.3c.5-1.78,1.3-3.46,1.2-5.42-.15-3,0-6-.06-9a4,4,0,0,0-.12-1,.69.69,0,0,0-1.18-.4,3.07,3.07,0,0,0-1.12,2c-.57,2.4-.7,4.89-1.53,7.24-.46,1.35-.51,2.8-.9,4.19a40.77,40.77,0,0,1-4,9,1.6,1.6,0,0,1-.33-1.33q0-24.23,0-48.45c0-1.38.19-1.56,1.56-1.57,7.8,0,15.61,0,23.41,0a3.26,3.26,0,0,1,3,2.1c1.07,2,2.66,3.64,3.87,5.55a27.79,27.79,0,0,0,3.37,4.87c2,2.07,3.6,4.53,5.83,6.49,1.62,1.43,3.14,3,4.89,4.28a2.4,2.4,0,0,1,1,2.52,23.12,23.12,0,0,0,0,6.54,14.66,14.66,0,0,0,2,5.05c1.88,3.3,4.64,5.84,7.2,8.55a15.55,15.55,0,0,1,3.61,4.94c.5,1.3.7,2.68,1.18,4,1.36,3.7,3.42,6.64,7.14,8.32a34.07,34.07,0,0,1,5.58,3.14,1.41,1.41,0,0,0,1.73.12,1.28,1.28,0,0,0,.28-1.7c-1.29-2.84-.9-5.79-.22-8.6a11.19,11.19,0,0,0-.85-6.81c-.93-2.46-2.69-4.38-4.33-6.42a28,28,0,0,1-3.73-5c-.48-1-.39-2.13-.78-3.16a6.83,6.83,0,0,0-3.81-4.31,3.13,3.13,0,0,1,1.67-.21,36.71,36.71,0,0,0,11.33-2.36,32.06,32.06,0,0,0,6-2.74c.71-.42,1.09.12,1.33.7,1.16,2.82,2.36,5.63,3.41,8.5a17.76,17.76,0,0,1,.88,3.94c.26,2.21.88,4.34,1.28,6.5.71,3.84.57,7.76,1.38,11.57a13.66,13.66,0,0,1,.16,2.56c0,2.38-.05,4.76,0,7.14C177.16,311.59,176.14,315.35,176.25,319.17Zm-54-11.2a1.77,1.77,0,0,0-.22.9c.07,2.28-.83,4.41-1.08,6.65-.15,1.38-1.15,2.52-1.94,3.68a61.7,61.7,0,0,0-3.47,5.24c-1.26,2.31-5.25,4.12-7.75,3.64a8,8,0,0,1,2.9-2.63c1.51-1.1,3.06-2.13,4.59-3.19,1.78-1.24,2.2-3.23,2.78-5.11.44-1.44.91-2.86,1.49-4.26.76-1.85,1.54-3.7,2.14-5.61.3-.95,1-1.79.91-2.86A5.91,5.91,0,0,1,122.27,308Zm1.17,4.29a7.89,7.89,0,0,1,.62-3.06c.5-1.08.22-2.3.41-3.5a1.7,1.7,0,0,1,.76,1.06c.63,2.39,1.66,4.73,1.07,7.29a16.75,16.75,0,0,1-2.85,6.07,16.24,16.24,0,0,0-2.58,5.14c-.48,1.63-.33,3.49-1.53,4.94a6.62,6.62,0,0,1-4,2.34c-2.53.48-4.9-.61-7.34-1a1.38,1.38,0,0,1-.89-.68,17.81,17.81,0,0,0,7.84-2.86c1.89-1.32,2.71-3.46,4-5.24a27.1,27.1,0,0,0,3.26-5.76A14.28,14.28,0,0,0,123.44,312.26Zm-2.81-7.78c-.86,2.91-2.72,5.31-3.75,8.1a26.4,26.4,0,0,0-.94,3.95,7.89,7.89,0,0,1-3.17,4.57c-1.39,1.13-3,1.94-4.32,3.18a26.12,26.12,0,0,0-3.66,3.92,5.34,5.34,0,0,1-.74.65,8.13,8.13,0,0,1,1.13-3.88c1.14-2.53,3.37-4.13,5.31-6,1.45-1.39,3.25-2.35,4.36-4.17a35.09,35.09,0,0,0,2.3-5.18c.79-1.93,1.6-3.86,2.44-5.77.46-1.05.94-2.11,1.42-3.43A11.7,11.7,0,0,1,120.63,304.48Z"/></g></g></svg>