<svg width="31" height="30" viewBox="0 0 31 30" fill="none" xmlns="http://www.w3.org/2000/svg">
<path d="M6.06194 11.7099C6.06194 11.4863 6.06194 11.2714 6.06194 11.0638C6.04412 10.6326 6.12878 10.2032 6.30899 9.81102C6.42482 9.62357 6.55072 9.44253 6.68613 9.26869C6.71872 9.22641 6.73851 9.17568 6.74315 9.12251C6.74315 7.00433 7.24162 5.03818 8.53972 3.33077C9.40862 2.16936 10.5718 1.26099 11.9092 0.699491C12.752 0.34149 13.6459 0.118508 14.558 0.0387478C16.2934 -0.128453 18.0377 0.248155 19.5495 1.1164C21.0613 1.98465 22.2656 3.30155 22.9957 4.88469C23.4345 5.81447 23.7099 6.81286 23.8099 7.8361C23.8538 8.27465 23.8465 8.72928 23.8581 9.17513C23.8557 9.20339 23.8608 9.2318 23.8728 9.25748C23.8849 9.28315 23.9035 9.30517 23.9269 9.32131C24.0866 9.43967 24.2193 9.59071 24.3161 9.76439C24.4129 9.93806 24.4716 10.1304 24.4882 10.3285C24.5291 10.732 24.5204 11.1384 24.5321 11.5433C24.5321 11.5974 24.5321 11.6515 24.5321 11.7099C24.8885 11.7417 25.2388 11.8229 25.5729 11.9511C26.8563 12.4598 27.6808 13.3706 27.9863 14.7578C28.7172 18.1098 29.5739 21.434 30.4714 24.7465C30.736 25.6292 30.6721 26.5779 30.2916 27.4172C30.1003 27.8454 29.8256 28.2311 29.4835 28.5519C29.1414 28.8727 28.7388 29.122 28.2992 29.2854C27.8108 29.4728 27.2917 29.567 26.7686 29.5632H3.84582C3.02435 29.5833 2.21768 29.3422 1.54199 28.8746C1.11576 28.5862 0.758231 28.2074 0.494739 27.7653C0.231247 27.3232 0.0682486 26.8286 0.017305 26.3164C-0.0342675 25.6966 0.0296753 25.0725 0.205881 24.476C0.837388 21.9617 1.45866 19.4459 2.08578 16.9301C2.30359 16.053 2.52433 15.1905 2.75091 14.3251C2.93949 13.6456 3.34058 13.0442 3.89552 12.6089C4.5062 12.1063 5.2517 11.795 6.03855 11.7143C6.04661 11.7155 6.05485 11.714 6.06194 11.7099ZM3.28448 17.4403C6.41424 18.734 9.64194 19.6111 13.0158 19.9151C13.0242 19.8957 13.031 19.8757 13.0363 19.8552C13.1544 19.315 13.4325 18.8229 13.8344 18.4431C14.1957 18.0973 14.6669 17.8895 15.1659 17.8561C15.6648 17.8227 16.1596 17.9658 16.5637 18.2604C17.0548 18.633 17.4039 19.1621 17.5533 19.7602C17.5665 19.8113 17.584 19.861 17.6001 19.9151C19.2812 19.7617 20.9467 19.4683 22.5791 19.038C24.1991 18.6162 25.7868 18.0788 27.33 17.43C27.331 17.4159 27.331 17.4018 27.33 17.3876C27.1282 16.5807 26.9294 15.7796 26.7204 14.9698C26.6517 14.658 26.528 14.361 26.3549 14.0927C26.1348 13.7519 25.8313 13.4729 25.4731 13.2823C25.115 13.0917 24.714 12.9958 24.3084 13.0036C18.5712 13.0105 12.8394 13.0139 7.11299 13.0139C6.768 13.0139 6.42301 13.0139 6.07948 13.0373C5.74267 13.0579 5.41462 13.1529 5.1189 13.3154C4.82318 13.478 4.56713 13.704 4.36915 13.9772C4.07115 14.3948 3.86582 14.8713 3.76688 15.3747C3.64993 15.879 3.54907 16.3863 3.43651 16.8921C3.39411 17.0704 3.3371 17.2532 3.28448 17.4403ZM19.2826 11.7275V11.6456C19.2914 11.2378 19.2826 10.827 19.3119 10.4206C19.3241 10.1961 19.3872 9.9774 19.4963 9.78089C19.6055 9.58438 19.7578 9.41523 19.9419 9.28623C19.9738 9.25379 19.9921 9.21039 19.9931 9.1649C20.0249 8.58543 19.9757 8.00436 19.8469 7.43849C19.6059 6.33073 18.9553 5.35488 18.0255 4.70634C16.9101 3.9155 15.6617 3.68307 14.3256 3.94766C13.534 4.10108 12.8006 4.47156 12.2074 5.01771C10.9795 6.12577 10.5541 7.54374 10.6155 9.14736C10.6169 9.17988 10.6255 9.21169 10.6407 9.2405C10.6559 9.26931 10.6772 9.29441 10.7032 9.314C10.7827 9.37282 10.8562 9.43942 10.9225 9.51281C11.1769 9.81214 11.3176 10.1915 11.3201 10.5843C11.3362 10.9147 11.3201 11.2465 11.3201 11.5769V11.7231L19.2826 11.7275ZM22.5571 9.16782C22.572 8.35833 22.4925 7.54985 22.3203 6.75874C22.0417 5.61651 21.4767 4.56406 20.6787 3.70061C19.3163 2.20517 17.6337 1.3617 15.5974 1.27399C14.5234 1.22408 13.4525 1.42425 12.4691 1.85872C11.2959 2.36721 10.276 3.17349 9.51037 4.19763C9.04553 4.80917 8.68587 5.49392 8.44617 6.22371C8.207 6.9714 8.07317 7.74877 8.04855 8.53339C8.04855 8.74097 8.04855 8.94709 8.04855 9.1649H9.32618C9.32618 9.08742 9.31449 9.01872 9.31157 8.93832C9.27825 7.92874 9.48832 6.92598 9.92407 6.01467C10.5084 4.72444 11.5402 3.68949 12.8287 3.10126C13.633 2.71956 14.5159 2.53276 15.4059 2.556C16.5993 2.57979 17.7576 2.96402 18.7286 3.65822C19.7601 4.37776 20.5297 5.4131 20.9213 6.60817C21.1724 7.37796 21.293 8.18431 21.278 8.99387V9.17952H22.4738L22.5571 9.16782ZM16.2406 20.513C16.2406 20.3522 16.2406 20.1914 16.2406 20.0321C16.2302 19.8169 16.1456 19.6119 16.0011 19.452C15.8567 19.2921 15.6613 19.1872 15.4483 19.155C15.2503 19.1165 15.0452 19.1473 14.8673 19.2424C14.6894 19.3374 14.5498 19.4909 14.4718 19.6769C14.3748 19.8817 14.3282 20.1067 14.3358 20.3332C14.3461 20.6943 14.3724 21.0539 14.3972 21.415C14.4045 21.4794 14.4212 21.5425 14.4469 21.6021C14.5322 21.7876 14.6753 21.9406 14.8547 22.0381C15.0342 22.1356 15.2404 22.1723 15.4424 22.1429C15.8313 22.0991 16.1032 21.8506 16.2143 21.412C16.2584 21.1144 16.2672 20.8127 16.2406 20.513ZM7.37904 10.4557V11.7245H10.0337V10.4557H7.37904ZM23.2369 10.4557H20.5851V11.7245H23.2369V10.4557Z" fill="black"/>
</svg>
